<svg xmlns="http://www.w3.org/2000/svg" width="24" height="24" viewBox="0 0 24 24">
  <path fill="#4285F4" d="M22.56 12.25c0-.78-.07-1.53-.2-2.25H12v4.26h5.92a5.05 5.05 0 0 1-2.2 3.34v2.77h3.56c2.08-1.92 3.28-4.74 3.28-8.12z"/>
  <path fill="#34A853" d="M12 23c2.97 0 5.46-.98 7.28-2.66l-3.56-2.77A6.53 6.53 0 0 1 12 19c-3.52 0-6.5-2.37-7.56-5.56H.94v2.86C2.75 20.08 7.06 23 12 23z"/>
  <path fill="#FBBC05" d="M4.44 13.44A6.6 6.6 0 0 1 4 12c0-.5.15-.98.44-1.44V7.7H.94A11 11 0 0 0 0 12c0 1.49.3 2.91.84 4.2l3.6-2.76z"/>
  <path fill="#EA4335" d="M12 5.44c1.94 0 3.67.67 5.04 1.97l3.1-3.1C17.95 2.33 15.23 1 12 1 7.06 1 2.75 3.92.94 7.7l3.5 2.76C5.5 7.37 8.48 5 12 5.44z"/>
</svg>